<?xml version="1.0" encoding="UTF-8"?>
<svg width="32px" height="32px" viewBox="0 0 32 32" version="1.1" xmlns="http://www.w3.org/2000/svg" xmlns:xlink="http://www.w3.org/1999/xlink">
    <title>00 ic/32 main/line/arrow bar/up</title>
    <defs>
        <path d="M16,25.6661496 C16.5128358,25.6661496 16.9355072,25.2801094 16.9932723,24.7827707 L17,24.6661496 L17,13.7484829 L20.6262266,17.3732564 C21.0167508,17.7637807 21.6499158,17.7637807 22.0404401,17.3732564 C22.4009241,17.0127724 22.4286536,16.4455414 22.1236287,16.0532501 L22.0404401,15.9590428 L16.7071068,10.6257095 C16.6792214,10.5978241 16.6496968,10.571578 16.6186899,10.547128 L16.7071068,10.6257095 L16.6492704,10.5721926 L16.5624614,10.5058646 L16.4397747,10.4344574 L16.3372588,10.3911149 L16.2292908,10.359227 L16.1143693,10.3392921 L15.9677454,10.3333333 L15.8625464,10.342252 L15.7707092,10.359227 L15.649154,10.396098 L15.5602253,10.4344574 L15.4720867,10.4832548 L15.3871006,10.5425209 C15.3503032,10.571578 15.3207786,10.5978241 15.2928932,10.6257095 L9.95955989,15.9590428 C9.56903559,16.3495671 9.56903559,16.9827321 9.95955989,17.3732564 C10.3200438,17.7337403 10.8872749,17.7614699 11.2795661,17.456445 L11.3737734,17.3732564 L15,13.7474829 L15,24.6661496 C15,25.2184343 15.4477153,25.6661496 16,25.6661496 Z M26.6666667,6.33333333 C27.2189514,6.33333333 27.6666667,6.78104858 27.6666667,7.33333333 C27.6666667,7.84616917 27.2806265,8.26884049 26.7832878,8.3266056 L26.6666667,8.33333333 L5.33333333,8.33333333 C4.78104858,8.33333333 4.33333333,7.88561808 4.33333333,7.33333333 C4.33333333,6.82049749 4.71937352,6.39782617 5.21671221,6.34006106 L5.33333333,6.33333333 L26.6666667,6.33333333 Z" id="path-1"></path>
    </defs>
    <g id="00-ic/32-main/line/arrow-bar/up" stroke="none" stroke-width="1" fill="none" fill-rule="evenodd">
        <mask id="mask-2" fill="white">
            <use xlink:href="#path-1"></use>
        </mask>
        <use id="Combined-Shape" fill="#FFFFFF" xlink:href="#path-1"></use>
    </g>
</svg>